<svg width="402" height="874" viewBox="0 0 402 874" fill="none" xmlns="http://www.w3.org/2000/svg">
<g clip-path="url(#clip0_104_249)">
<rect width="402" height="874" fill="white"/>
<path opacity="0.3" d="M171.411 172.455C175.978 177.368 178.949 181.812 180.322 185.786C181.696 189.76 181.49 193.676 179.704 197.535C177.918 201.393 174.5 205.731 169.451 210.546C161.534 217.662 154.827 221.088 149.33 220.824C143.89 220.752 137.584 216.661 130.412 208.552L52.0926 122.724L33.1949 237.377C31.2343 247.747 27.9843 254.432 23.4447 257.431C18.9615 260.622 11.5625 261.333 1.24787 259.564C-5.54583 258.43 -10.8323 256.75 -14.6116 254.524C-18.199 252.241 -20.4878 249.056 -21.4778 244.97C-22.4679 240.883 -22.3679 235.539 -21.1777 228.937L7.17651 58.051C8.12867 52.7695 10.4178 48.1381 14.0439 44.1567C17.8056 39.9271 22.0854 37.1088 26.8833 35.7017C30.3378 34.6885 33.7015 34.4315 36.9742 34.9307C40.3826 35.1816 43.6719 36.0927 46.8423 37.664C50.0126 39.2353 52.8439 41.4271 55.336 44.2394L171.411 172.455ZM27.9686 208.896L36.6764 157.571L84.1757 143.641L119.225 182.133L27.9686 208.896Z" fill="#FFE4B5"/>
<path opacity="0.3" d="M96.6199 298.11C100.266 297.04 103.805 296.315 107.237 295.934C110.668 295.553 113.89 296.588 116.901 299.04C120.105 301.435 122.804 306.375 124.999 313.86C127.138 321.153 127.535 326.768 126.188 330.706C124.978 334.396 122.73 337.035 119.444 338.624C116.35 340.157 112.98 341.458 109.334 342.527L69.6072 354.178L108.275 486.025C109.513 490.247 110.34 494.486 110.754 498.741C111.112 502.805 109.834 506.618 106.919 510.183C104.196 513.691 98.4207 516.739 89.5926 519.329C81.1482 521.805 74.737 522.331 70.3589 520.905C65.9245 519.288 62.7606 516.672 60.8672 513.059C59.1095 509.198 57.6115 505.156 56.3732 500.934L17.7897 369.375L-22.2249 381.11C-25.6794 382.124 -29.2183 382.849 -32.8417 383.286C-36.3294 383.475 -39.6751 382.372 -42.8786 379.977C-45.8903 377.526 -48.4936 372.558 -50.6888 365.073C-52.8276 357.78 -53.2918 352.289 -52.0812 348.599C-50.6788 344.853 -48.3348 342.185 -45.0491 340.596C-41.7635 339.007 -38.3934 337.706 -34.9389 336.693L96.6199 298.11Z" fill="#FFE4B5"/>
<path opacity="0.3" d="M209.255 645.159C195.144 641.414 182.595 635.29 171.608 626.788C160.866 618.143 152.113 607.853 145.348 595.919C138.583 583.984 134.136 571.113 132.006 557.304C130.122 543.354 131.052 529.323 134.797 515.212C138.696 500.521 144.852 487.463 153.264 476.038C161.869 464.665 171.997 455.351 183.648 448.097C195.298 440.843 207.834 436.1 221.256 433.868C234.871 431.688 248.541 432.419 262.266 436.061C276.377 439.806 288.804 446.001 299.546 454.646C310.532 463.149 319.408 473.367 326.173 485.302C332.938 497.236 337.237 510.276 339.07 524.419C340.955 538.369 339.948 552.69 336.049 567.381C332.252 581.686 326.077 594.429 317.523 605.608C309.162 616.84 299.06 626.057 287.216 633.259C275.617 640.32 263.106 644.967 249.685 647.199C236.457 649.482 222.98 648.802 209.255 645.159ZM221.888 591.712C228.46 593.456 234.98 593.841 241.446 592.867C247.963 591.7 253.938 589.458 259.371 586.14C265.049 582.681 269.868 578.166 273.829 572.596C278.035 566.884 281.087 560.451 282.986 553.299C284.884 546.146 285.397 539.144 284.526 532.291C283.655 525.438 281.612 519.102 278.397 513.283C275.427 507.321 271.375 502.315 266.243 498.263C261.355 494.068 255.722 491.125 249.343 489.432C242.77 487.688 236.225 487.399 229.708 488.566C223.435 489.592 217.434 491.931 211.706 495.583C206.221 499.094 201.402 503.609 197.247 509.128C193.093 514.647 190.066 520.982 188.168 528.135C186.321 535.094 185.833 542 186.705 548.853C187.576 555.705 189.497 562.112 192.467 568.074C195.682 573.893 199.733 578.9 204.621 583.094C209.753 587.146 215.509 590.019 221.888 591.712Z" fill="#FFE4B5"/>
<path opacity="0.3" d="M-17.8582 806.135C-26.5571 803.826 -32.4095 800.928 -35.4154 797.44C-38.37 793.759 -39.6952 789.787 -39.3911 785.522C-39.0357 781.064 -38.2936 776.708 -37.165 772.456L2.54351 622.835C3.67218 618.582 5.16181 614.529 7.0124 610.675C8.86299 606.82 11.9582 604.124 16.298 602.586C20.6891 600.854 27.3307 601.169 36.2229 603.528L93.9253 618.842C101.271 620.792 108.786 624.442 116.471 629.792C124.207 634.949 131.024 641.621 136.921 649.807C143.012 658.045 147.242 667.445 149.612 678.006C151.982 688.568 151.474 700.228 148.088 712.986C144.754 725.551 139.439 735.832 132.144 743.828C124.848 751.824 116.514 757.889 107.14 762.023C98.0102 766.015 88.7823 768.428 79.4559 769.264C70.1808 769.906 61.7737 769.227 54.2347 767.226L23.2088 758.992L15.8212 786.828C14.6925 791.081 13.2029 795.135 11.3523 798.989C9.50168 802.843 6.38083 805.636 1.98974 807.368C-2.35005 808.906 -8.96604 808.495 -17.8582 806.135ZM37.2914 705.929L68.6073 714.24C71.1203 714.907 74.1739 715.096 77.7679 714.809C81.4133 714.328 84.9029 712.874 88.2367 710.448C91.5706 708.022 93.9558 704.103 95.3922 698.69C96.4696 694.631 96.4522 690.798 95.3399 687.192C94.279 683.393 92.3363 680.187 89.5118 677.575C86.9319 674.822 83.6122 672.906 79.5527 671.829L48.5268 663.594L37.2914 705.929Z" fill="#FFE4B5"/>
<path opacity="0.3" d="M172.511 961.921C163.64 960.404 157.55 958.044 154.243 954.84C150.97 951.44 149.293 947.602 149.212 943.327C149.166 938.855 149.513 934.451 150.255 930.114L176.405 777.234C177.146 772.897 178.266 768.726 179.762 764.721C181.259 760.716 184.099 757.753 188.283 755.83C192.501 753.711 199.144 753.427 208.212 754.978C217.281 756.529 223.353 758.988 226.429 762.355C229.736 765.559 231.43 769.298 231.511 773.573C231.591 777.847 231.244 782.252 230.468 786.786L204.318 939.666C203.577 944.003 202.457 948.174 200.961 952.179C199.464 956.184 196.607 959.246 192.389 961.365C188.205 963.287 181.579 963.473 172.511 961.921Z" fill="#FFE4B5"/>
<path opacity="0.3" d="M197.352 145.384C189.461 141.49 184.386 137.536 182.129 133.523C179.96 129.33 179.447 125.174 180.588 121.054C181.729 116.933 183.317 112.81 185.353 108.685L254.253 -30.9404C256.2 -34.8861 258.417 -38.4755 260.904 -41.7086C263.392 -44.9416 266.915 -46.8831 271.473 -47.5331C276.211 -48.0946 282.615 -46.3841 290.686 -42.4014C298.577 -38.5073 303.471 -34.8658 305.367 -31.4768C307.263 -28.0879 308.625 -24.2937 309.452 -20.0942L332.103 103.488L370.204 26.2769C372.151 22.3311 374.368 18.7417 376.856 15.5087C379.522 12.3642 383.135 10.4669 387.693 9.81689C392.251 9.16687 398.566 10.8332 406.637 14.8158C414.887 18.887 420.007 22.9745 421.996 27.0785C424.253 31.0917 424.811 35.1584 423.67 39.2788C422.529 43.3992 420.94 47.522 418.905 51.6471L350.404 190.466C348.456 194.411 346.195 198.09 343.619 201.503C341.043 204.915 337.432 207.036 332.785 207.866C328.227 208.516 321.822 206.805 313.572 202.734C307.474 199.725 303.077 196.886 300.379 194.216C297.773 191.815 296.101 188.649 295.365 184.717L271.089 58.3258L234.183 133.116C232.236 137.061 229.975 140.74 227.399 144.153C224.823 147.565 221.211 149.686 216.565 150.515C212.006 151.166 205.602 149.455 197.352 145.384Z" fill="#FFE4B5"/>
<path opacity="0.3" d="M426.58 420.77C427.62 427.397 427.599 432.742 426.516 436.805C425.434 440.868 423.073 444 419.435 446.2C415.796 448.401 410.538 450.086 403.66 451.256C393.117 452.73 385.641 451.821 381.231 448.529C376.761 445.428 373.819 438.511 372.407 427.777L355.454 312.83L275.687 397.325C268.263 404.827 261.831 408.553 256.391 408.501C250.89 408.64 244.358 405.093 236.795 397.86C231.796 393.122 228.352 388.773 226.463 384.814C224.765 380.916 224.648 376.996 226.112 373.055C227.575 369.113 230.646 364.738 235.324 359.93L354.37 234.096C358.113 230.25 362.6 227.69 367.832 226.416C373.316 225.012 378.44 225.068 383.205 226.584C386.635 227.675 389.568 229.342 392.002 231.586C394.688 233.7 396.906 236.294 398.656 239.369C400.406 242.444 401.528 245.845 402.022 249.57L426.58 420.77ZM287.276 370.789L323.19 333.103L370.361 348.109L377.901 399.618L287.276 370.789Z" fill="#FFE4B5"/>
<path opacity="0.3" d="M463.322 757.718C469.126 761.082 473.265 764.463 475.741 767.862C478.216 771.261 479.164 775.067 478.583 779.279C478.003 783.491 476.002 788.638 472.581 794.719C467.089 803.838 461.676 809.074 456.343 810.428C451.119 811.95 443.893 809.881 434.664 804.222L334.679 745.033L350.116 860.202C351.272 870.693 350.118 878.036 346.653 882.23C343.298 886.592 336.43 889.435 326.049 890.758C319.221 891.659 313.674 891.597 309.409 890.573C305.311 889.438 302.191 887.062 300.05 883.443C297.909 879.824 296.443 874.684 295.651 868.023L272.822 696.311C272.188 690.982 273.024 685.884 275.328 681.017C277.689 675.872 280.959 671.926 285.136 669.178C288.143 667.199 291.285 665.971 294.561 665.491C297.893 664.735 301.305 664.645 304.797 665.221C308.288 665.797 311.636 667.066 314.841 669.027L463.322 757.718ZM336.794 834.493L330.121 782.864L371.474 755.659L416.243 782.226L336.794 834.493Z" fill="#FFE4B5"/>
</g>
<defs>
<clipPath id="clip0_104_249">
<rect width="402" height="874" fill="white"/>
</clipPath>
</defs>
</svg>
