<svg width="180" height="50" viewBox="0 0 180 50" fill="none" xmlns="http://www.w3.org/2000/svg">
<rect x="16" y="15" width="25" height="25" rx="2" fill="#FF8C42"/>
<circle cx="28" cy="16" r="6" fill="#FF8C42"/>
<circle cx="16" cy="28" r="6" fill="#FF8C42"/>
<path d="M38.1808 32.576C38.9835 33.0987 39.4315 33.6213 39.5248 34.144C39.6182 34.648 39.3755 35.3107 38.7968 36.132C38.3862 36.7107 38.0128 37.1027 37.6768 37.308C37.3408 37.5133 36.9768 37.56 36.5848 37.448C36.2115 37.336 35.7635 37.112 35.2408 36.776L33.6728 35.768C32.9075 36.328 32.0675 36.7667 31.1528 37.084C30.2382 37.4013 29.2768 37.56 28.2688 37.56C26.9062 37.56 25.6275 37.308 24.4328 36.804C23.2568 36.2813 22.2208 35.5627 21.3248 34.648C20.4288 33.7333 19.7195 32.6787 19.1968 31.484C18.6928 30.2707 18.4408 28.9827 18.4408 27.62C18.4408 26.2013 18.6835 24.876 19.1688 23.644C19.6728 22.412 20.3635 21.3293 21.2408 20.396C22.1182 19.4627 23.1355 18.7347 24.2928 18.212C25.4688 17.6893 26.7195 17.428 28.0448 17.428C29.4075 17.428 30.6768 17.6893 31.8528 18.212C33.0475 18.716 34.0928 19.4253 34.9888 20.34C35.8848 21.2547 36.5848 22.328 37.0888 23.56C37.5928 24.7733 37.8448 26.0893 37.8448 27.508C37.8448 28.2547 37.7608 28.9827 37.5928 29.692C37.4435 30.4013 37.2195 31.0827 36.9208 31.736L38.1808 32.576ZM28.1288 32.436C28.7635 32.436 29.3608 32.3147 29.9208 32.072C30.4808 31.8107 30.9662 31.4653 31.3768 31.036C31.8062 30.588 32.1328 30.0653 32.3568 29.468C32.5995 28.852 32.7208 28.1987 32.7208 27.508C32.7208 26.8173 32.5995 26.1733 32.3568 25.576C32.1142 24.9787 31.7782 24.456 31.3488 24.008C30.9382 23.5413 30.4528 23.1867 29.8928 22.944C29.3515 22.6827 28.7728 22.552 28.1568 22.552C27.5222 22.552 26.9248 22.6827 26.3648 22.944C25.8048 23.1867 25.3102 23.5413 24.8808 24.008C24.4702 24.456 24.1435 24.9787 23.9008 25.576C23.6768 26.1733 23.5648 26.8173 23.5648 27.508C23.5648 28.1987 23.6862 28.8427 23.9288 29.44C24.1715 30.0373 24.4982 30.56 24.9088 31.008C25.3382 31.456 25.8235 31.8107 26.3648 32.072C26.9248 32.3147 27.5128 32.436 28.1288 32.436Z" fill="white"/>
<path d="M50.8553 38.56C49.4366 38.56 48.1859 38.28 47.1033 37.72C46.0393 37.1413 45.1433 36.3853 44.4153 35.452C43.6873 34.5187 43.1366 33.492 42.7633 32.372C42.4086 31.252 42.2313 30.1413 42.2313 29.04V21.2C42.2313 20.7707 42.2686 20.36 42.3433 19.968C42.4179 19.576 42.6326 19.2587 42.9873 19.016C43.3419 18.7547 43.9486 18.624 44.8073 18.624C45.6659 18.624 46.2726 18.7547 46.6273 19.016C46.9819 19.2587 47.1966 19.576 47.2713 19.968C47.3459 20.36 47.3833 20.78 47.3833 21.228V29.04C47.3833 29.656 47.4859 30.3 47.6913 30.972C47.8966 31.644 48.2513 32.2227 48.7553 32.708C49.2779 33.1747 50.0059 33.408 50.9393 33.408C51.6486 33.408 52.2646 33.2307 52.7873 32.876C53.3099 32.5027 53.7113 31.9893 53.9913 31.336C54.2899 30.664 54.4393 29.8893 54.4393 29.012V21.06C54.4393 20.6493 54.4766 20.2667 54.5513 19.912C54.6446 19.5387 54.8686 19.2307 55.2233 18.988C55.5779 18.7453 56.1753 18.624 57.0153 18.624C57.8739 18.624 58.4713 18.7547 58.8073 19.016C59.1619 19.2773 59.3766 19.604 59.4513 19.996C59.5259 20.388 59.5633 20.7987 59.5633 21.228V29.096C59.5633 30.216 59.3766 31.336 59.0033 32.456C58.6299 33.5573 58.0699 34.5747 57.3233 35.508C56.5953 36.4227 55.6899 37.16 54.6073 37.72C53.5246 38.28 52.2739 38.56 50.8553 38.56ZM63.6738 38.252C62.8338 38.252 62.2365 38.1307 61.8818 37.888C61.5271 37.6267 61.3125 37.3 61.2378 36.908C61.1631 36.4973 61.1258 36.0867 61.1258 35.676V21.2C61.1258 20.7893 61.1631 20.388 61.2378 19.996C61.3125 19.604 61.5271 19.2867 61.8818 19.044C62.2365 18.7827 62.8431 18.652 63.7018 18.652C64.5605 18.652 65.1578 18.7827 65.4938 19.044C65.8485 19.2867 66.0631 19.604 66.1378 19.996C66.2125 20.388 66.2498 20.7987 66.2498 21.228V35.704C66.2498 36.1147 66.2125 36.516 66.1378 36.908C66.0631 37.3 65.8485 37.6267 65.4938 37.888C65.1391 38.1307 64.5325 38.252 63.6738 38.252ZM69.981 38.308C69.2717 38.308 68.665 38.0653 68.161 37.58C67.6757 37.076 67.433 36.4507 67.433 35.704C67.433 35.4427 67.461 35.2093 67.517 35.004C67.573 34.78 67.6663 34.5933 67.797 34.444L75.581 23.664H70.093C69.6823 23.664 69.2717 23.636 68.861 23.58C68.4503 23.5053 68.105 23.3 67.825 22.964C67.5637 22.6093 67.433 22.0213 67.433 21.2C67.433 20.3413 67.5543 19.7347 67.797 19.38C68.0583 19.0253 68.385 18.8107 68.777 18.736C69.1877 18.6613 69.5983 18.624 70.009 18.624H80.481C81.1903 18.624 81.7877 18.876 82.273 19.38C82.777 19.884 83.029 20.5093 83.029 21.256C83.029 21.5173 83.001 21.76 82.945 21.984C82.889 22.1893 82.7957 22.3667 82.665 22.516L74.881 33.296H80.873C81.2837 33.296 81.6757 33.3333 82.049 33.408C82.441 33.4827 82.7584 33.6973 83.001 34.052C83.2624 34.388 83.393 34.9573 83.393 35.76C83.393 36.6 83.2624 37.1973 83.001 37.552C82.7584 37.9067 82.441 38.1213 82.049 38.196C81.657 38.2707 81.2463 38.308 80.817 38.308H69.981Z" fill="#FF8C42"/>
<path d="M99.1474 18.624C99.5021 18.624 99.8381 18.652 100.155 18.708C100.473 18.764 100.734 18.9413 100.939 19.24C101.163 19.5387 101.275 20.052 101.275 20.78C101.275 21.4893 101.163 22.0027 100.939 22.32C100.734 22.6187 100.463 22.796 100.127 22.852C99.8101 22.908 99.4741 22.936 99.1194 22.936H95.2554V35.76C95.2554 36.1707 95.2181 36.572 95.1434 36.964C95.0687 37.3373 94.8541 37.6453 94.4994 37.888C94.1634 38.1307 93.5661 38.252 92.7074 38.252C91.8861 38.252 91.2981 38.1307 90.9434 37.888C90.5887 37.6267 90.3741 37.3093 90.2994 36.936C90.2434 36.544 90.2154 36.1427 90.2154 35.732V22.936H86.3234C85.9874 22.936 85.6514 22.908 85.3154 22.852C84.9981 22.7773 84.7274 22.5907 84.5034 22.292C84.2981 21.9933 84.1954 21.48 84.1954 20.752C84.1954 20.0427 84.2981 19.5387 84.5034 19.24C84.7274 18.9413 85.0074 18.764 85.3434 18.708C85.6794 18.652 86.0154 18.624 86.3514 18.624H99.1474ZM110.238 38.56C108.875 38.56 107.596 38.308 106.402 37.804C105.226 37.2813 104.19 36.5627 103.294 35.648C102.398 34.7333 101.688 33.6787 101.166 32.484C100.662 31.2707 100.41 29.9827 100.41 28.62C100.41 27.2013 100.652 25.876 101.138 24.644C101.642 23.412 102.332 22.3293 103.21 21.396C104.087 20.4627 105.104 19.7347 106.262 19.212C107.438 18.6893 108.688 18.428 110.014 18.428C111.376 18.428 112.646 18.6893 113.822 19.212C115.016 19.716 116.062 20.4253 116.958 21.34C117.854 22.2547 118.554 23.328 119.058 24.56C119.562 25.7733 119.814 27.0893 119.814 28.508C119.814 29.8893 119.562 31.1867 119.058 32.4C118.572 33.6133 117.882 34.6867 116.986 35.62C116.108 36.5347 115.091 37.2533 113.934 37.776C112.795 38.2987 111.563 38.56 110.238 38.56ZM110.098 33.436C110.732 33.436 111.33 33.3147 111.89 33.072C112.45 32.8107 112.935 32.4653 113.346 32.036C113.775 31.588 114.102 31.0653 114.326 30.468C114.568 29.852 114.69 29.1987 114.69 28.508C114.69 27.8173 114.568 27.1733 114.326 26.576C114.083 25.9787 113.747 25.456 113.318 25.008C112.907 24.5413 112.422 24.1867 111.862 23.944C111.32 23.6827 110.742 23.552 110.126 23.552C109.491 23.552 108.894 23.6827 108.334 23.944C107.792 24.1867 107.307 24.5413 106.878 25.008C106.467 25.456 106.14 25.9787 105.898 26.576C105.655 27.1733 105.534 27.8173 105.534 28.508C105.534 29.18 105.655 29.8147 105.898 30.412C106.14 31.0093 106.467 31.5413 106.878 32.008C107.307 32.456 107.792 32.8107 108.334 33.072C108.894 33.3147 109.482 33.436 110.098 33.436Z" fill="#FFC107"/>
<path d="M123.725 38.224C122.885 38.224 122.288 38.1027 121.933 37.86C121.579 37.5987 121.364 37.272 121.289 36.88C121.215 36.4693 121.177 36.0587 121.177 35.648V21.2C121.177 20.7893 121.215 20.388 121.289 19.996C121.364 19.604 121.579 19.2867 121.933 19.044C122.288 18.7827 122.895 18.652 123.753 18.652H129.325C130.035 18.652 130.8 18.8013 131.621 19.1C132.443 19.38 133.217 19.8187 133.945 20.416C134.692 21.0133 135.299 21.76 135.765 22.656C136.232 23.552 136.465 24.616 136.465 25.848C136.465 27.0613 136.232 28.116 135.765 29.012C135.299 29.908 134.692 30.6547 133.945 31.252C133.217 31.8307 132.443 32.2693 131.621 32.568C130.8 32.848 130.025 32.988 129.297 32.988H126.301V35.676C126.301 36.0867 126.264 36.488 126.189 36.88C126.115 37.272 125.9 37.5987 125.545 37.86C125.191 38.1027 124.584 38.224 123.725 38.224ZM126.301 27.864H129.325C129.568 27.864 129.848 27.808 130.165 27.696C130.483 27.5653 130.763 27.3507 131.005 27.052C131.248 26.7533 131.369 26.3427 131.369 25.82C131.369 25.428 131.276 25.0827 131.089 24.784C130.903 24.4667 130.651 24.224 130.333 24.056C130.035 23.8693 129.689 23.776 129.297 23.776H126.301V27.864ZM140.182 38.252C139.342 38.252 138.744 38.1307 138.39 37.888C138.035 37.6267 137.82 37.3 137.746 36.908C137.671 36.4973 137.634 36.0867 137.634 35.676V21.2C137.634 20.7893 137.671 20.388 137.746 19.996C137.82 19.604 138.035 19.2867 138.39 19.044C138.744 18.7827 139.351 18.652 140.21 18.652C141.068 18.652 141.666 18.7827 142.002 19.044C142.356 19.2867 142.571 19.604 142.646 19.996C142.72 20.388 142.758 20.7987 142.758 21.228V35.704C142.758 36.1147 142.72 36.516 142.646 36.908C142.571 37.3 142.356 37.6267 142.002 37.888C141.647 38.1307 141.04 38.252 140.182 38.252Z" fill="#4CAF50"/>
<path d="M162.021 34.696C162.301 35.256 162.451 35.732 162.469 36.124C162.488 36.516 162.367 36.8613 162.105 37.16C161.844 37.4587 161.424 37.7573 160.845 38.056C159.949 38.4853 159.259 38.616 158.773 38.448C158.288 38.2987 157.831 37.7667 157.401 36.852L152.641 27.108L147.937 36.88C147.489 37.7573 147.023 38.2707 146.537 38.42C146.052 38.588 145.371 38.4573 144.493 38.028C143.915 37.748 143.485 37.4587 143.205 37.16C142.944 36.8613 142.823 36.516 142.841 36.124C142.86 35.732 143.009 35.256 143.289 34.696L150.317 20.136C150.541 19.688 150.868 19.3333 151.297 19.072C151.745 18.792 152.203 18.652 152.669 18.652C153.005 18.652 153.313 18.7173 153.593 18.848C153.892 18.96 154.163 19.128 154.405 19.352C154.648 19.576 154.844 19.8467 154.993 20.164L162.021 34.696ZM148.217 34.192L150.345 29.824H154.965L157.093 34.192H148.217ZM166.079 31.392C165.239 31.392 164.642 31.28 164.287 31.056C163.933 30.832 163.718 30.552 163.643 30.216C163.569 29.8613 163.531 29.4973 163.531 29.124V20.864C163.531 20.4907 163.569 20.1267 163.643 19.772C163.718 19.4173 163.933 19.128 164.287 18.904C164.642 18.6613 165.249 18.54 166.107 18.54C166.966 18.54 167.563 18.6613 167.899 18.904C168.254 19.128 168.469 19.4267 168.543 19.8C168.618 20.1547 168.655 20.5187 168.655 20.892V29.152C168.655 29.5253 168.618 29.8893 168.543 30.244C168.469 30.58 168.254 30.86 167.899 31.084C167.545 31.2893 166.938 31.392 166.079 31.392ZM166.079 38.28C164.997 38.28 164.278 38.0747 163.923 37.664C163.569 37.2347 163.391 36.5347 163.391 35.564C163.391 35.1533 163.429 34.7427 163.503 34.332C163.597 33.9213 163.83 33.5853 164.203 33.324C164.577 33.044 165.211 32.904 166.107 32.904C167.209 32.904 167.927 33.1093 168.263 33.52C168.599 33.9307 168.767 34.6307 168.767 35.62C168.767 36.0307 168.73 36.4413 168.655 36.852C168.581 37.2627 168.357 37.608 167.983 37.888C167.61 38.1493 166.975 38.28 166.079 38.28Z" fill="#077AFF"/>
</svg>
